<svg width="27" height="28" viewBox="0 0 27 28" fill="none" xmlns="http://www.w3.org/2000/svg">
<g filter="url(#filter0_d_201_58)">
<mask id="mask0_201_58" style="mask-type:alpha" maskUnits="userSpaceOnUse" x="3" y="0" width="21" height="20">
<rect x="3.5" width="20" height="20" fill="#D9D9D9"/>
</mask>
<g mask="url(#mask0_201_58)">
<path d="M12.6667 10.8333C12.9028 10.8333 13.1007 10.7535 13.2604 10.5938C13.4201 10.434 13.5 10.2361 13.5 10C13.5 9.76389 13.4201 9.56597 13.2604 9.40625C13.1007 9.24653 12.9028 9.16667 12.6667 9.16667C12.4306 9.16667 12.2326 9.24653 12.0729 9.40625C11.9132 9.56597 11.8333 9.76389 11.8333 10C11.8333 10.2361 11.9132 10.434 12.0729 10.5938C12.2326 10.7535 12.4306 10.8333 12.6667 10.8333ZM9.33333 17.5V15.8333L14.3333 15V5.72917C14.3333 5.52083 14.2708 5.33333 14.1458 5.16667C14.0208 5 13.8611 4.90278 13.6667 4.875L9.33333 4.16667V2.5L13.9167 3.25C14.5278 3.36111 15.0278 3.64583 15.4167 4.10417C15.8056 4.5625 16 5.09722 16 5.70833V16.375L9.33333 17.5ZM6 17.5V15.8333H7.66667V4.16667C7.66667 3.69444 7.82986 3.29861 8.15625 2.97917C8.48264 2.65972 8.875 2.5 9.33333 2.5H17.6667C18.1389 2.5 18.5347 2.65972 18.8542 2.97917C19.1736 3.29861 19.3333 3.69444 19.3333 4.16667V15.8333H21V17.5H6ZM9.33333 15.8333H17.6667V4.16667H9.33333V15.8333Z" fill="white"/>
</g>
</g>
<defs>
<filter id="filter0_d_201_58" x="0" y="0.5" width="27" height="27" filterUnits="userSpaceOnUse" color-interpolation-filters="sRGB">
<feFlood flood-opacity="0" result="BackgroundImageFix"/>
<feColorMatrix in="SourceAlpha" type="matrix" values="0 0 0 0 0 0 0 0 0 0 0 0 0 0 0 0 0 0 127 0" result="hardAlpha"/>
<feOffset dy="4"/>
<feGaussianBlur stdDeviation="3"/>
<feComposite in2="hardAlpha" operator="out"/>
<feColorMatrix type="matrix" values="0 0 0 0 0 0 0 0 0 0 0 0 0 0 0 0 0 0 0.32 0"/>
<feBlend mode="normal" in2="BackgroundImageFix" result="effect1_dropShadow_201_58"/>
<feBlend mode="normal" in="SourceGraphic" in2="effect1_dropShadow_201_58" result="shape"/>
</filter>
</defs>
</svg>
