<svg width="28" height="28" viewBox="0 0 28 28" fill="none" xmlns="http://www.w3.org/2000/svg">
<g filter="url(#filter0_d_201_72)">
<mask id="mask0_201_72" style="mask-type:alpha" maskUnits="userSpaceOnUse" x="4" y="0" width="20" height="20">
<rect x="4" width="20" height="20" fill="#D9D9D9"/>
</mask>
<g mask="url(#mask0_201_72)">
<path d="M6.5 17.5V15.8333H8.16667V4.16667C8.16667 3.70833 8.32986 3.31597 8.65625 2.98958C8.98264 2.66319 9.375 2.5 9.83333 2.5H18.1667C18.625 2.5 19.0174 2.66319 19.3438 2.98958C19.6701 3.31597 19.8333 3.70833 19.8333 4.16667V15.8333H21.5V17.5H6.5ZM18.1667 15.8333V4.16667H9.83333V15.8333H18.1667ZM15.6667 10.8333C15.9028 10.8333 16.1007 10.7535 16.2604 10.5938C16.4201 10.434 16.5 10.2361 16.5 10C16.5 9.76389 16.4201 9.56597 16.2604 9.40625C16.1007 9.24653 15.9028 9.16667 15.6667 9.16667C15.4306 9.16667 15.2326 9.24653 15.0729 9.40625C14.9132 9.56597 14.8333 9.76389 14.8333 10C14.8333 10.2361 14.9132 10.434 15.0729 10.5938C15.2326 10.7535 15.4306 10.8333 15.6667 10.8333Z" fill="white"/>
</g>
</g>
<defs>
<filter id="filter0_d_201_72" x="0.5" y="0.5" width="27" height="27" filterUnits="userSpaceOnUse" color-interpolation-filters="sRGB">
<feFlood flood-opacity="0" result="BackgroundImageFix"/>
<feColorMatrix in="SourceAlpha" type="matrix" values="0 0 0 0 0 0 0 0 0 0 0 0 0 0 0 0 0 0 127 0" result="hardAlpha"/>
<feOffset dy="4"/>
<feGaussianBlur stdDeviation="3"/>
<feComposite in2="hardAlpha" operator="out"/>
<feColorMatrix type="matrix" values="0 0 0 0 0 0 0 0 0 0 0 0 0 0 0 0 0 0 0.32 0"/>
<feBlend mode="normal" in2="BackgroundImageFix" result="effect1_dropShadow_201_72"/>
<feBlend mode="normal" in="SourceGraphic" in2="effect1_dropShadow_201_72" result="shape"/>
</filter>
</defs>
</svg>
