<svg width="13" height="13" viewBox="0 0 13 13" fill="none" xmlns="http://www.w3.org/2000/svg">
<rect x="0.5" y="0.5" width="12" height="12" rx="6" fill="white"/>
<path d="M7.99256 9C7.91256 8.84 7.81656 8.664 7.70456 8.472C7.59256 8.27467 7.4699 8.072 7.33656 7.864C7.20323 7.65067 7.06456 7.44 6.92056 7.232C6.77656 7.01867 6.6379 6.81867 6.50456 6.632C6.37123 6.81867 6.23256 7.01867 6.08856 7.232C5.94456 7.44 5.8059 7.65067 5.67256 7.864C5.54456 8.072 5.4219 8.27467 5.30456 8.472C5.19256 8.664 5.09656 8.84 5.01656 9H4.16056C4.40056 8.53067 4.6779 8.05333 4.99256 7.568C5.31256 7.08267 5.65123 6.584 6.00856 6.072L4.23256 3.456H5.12856L6.49656 5.52L7.84856 3.456H8.73656L6.99256 6.04C7.35523 6.55733 7.69656 7.06133 8.01656 7.552C8.33656 8.04267 8.61923 8.52533 8.86456 9H7.99256Z" fill="#F03029"/>
</svg>
