<svg width="16" height="16" viewBox="0 0 16 16" fill="none" xmlns="http://www.w3.org/2000/svg">
<mask id="mask0_222_116" style="mask-type:alpha" maskUnits="userSpaceOnUse" x="0" y="0" width="16" height="16">
<rect width="16" height="16" fill="#D9D9D9"/>
</mask>
<g mask="url(#mask0_222_116)">
<path d="M0.666656 14L7.99999 1.33333L15.3333 14H0.666656ZM2.96666 12.6667H13.0333L7.99999 3.99999L2.96666 12.6667ZM7.99999 12C8.18888 12 8.34721 11.9361 8.47499 11.8083C8.60277 11.6806 8.66666 11.5222 8.66666 11.3333C8.66666 11.1444 8.60277 10.9861 8.47499 10.8583C8.34721 10.7306 8.18888 10.6667 7.99999 10.6667C7.8111 10.6667 7.65277 10.7306 7.52499 10.8583C7.39721 10.9861 7.33332 11.1444 7.33332 11.3333C7.33332 11.5222 7.39721 11.6806 7.52499 11.8083C7.65277 11.9361 7.8111 12 7.99999 12ZM7.33332 10H8.66666V6.66666H7.33332V10Z" fill="#3D4552"/>
</g>
</svg>
